# xmcd
#
# Track frame offsets: 
#        150
#        18020
#        45584
#        67268
#        90929
#        117929
#        142581
#        161960
#
# Disc length: 2928 seconds
#
# Revision: 0
# Processed by: cddbd v1.5.2PL0 Copyright (c) Steve Scherf et al.
# Submitted via: ExactAudioCopyFreeDBPlugin 1.0
#
DISCID=5d0b6e08
DTITLE=郝云 - 冲动
DYEAR=2016
DGENRE=Country
TTITLE0=这个城市
TTITLE1=逃跑的木偶
TTITLE2=天马行空
TTITLE3=如果来生还能遇见你
TTITLE4=西行漫记
TTITLE5=去大理
TTITLE6=结了
TTITLE7=卖艺的小青年
EXTD=
EXTT0=
EXTT1=
EXTT2=
EXTT3=
EXTT4=
EXTT5=
EXTT6=
EXTT7=
PLAYORDER=
